<mxfile host="app.diagrams.net" modified="2023-07-22T00:30:10.318Z" agent="Mozilla/5.0 (Windows NT 10.0; Win64; x64) AppleWebKit/537.36 (KHTML, like Gecko) Chrome/114.0.0.0 Safari/537.36 Edg/114.0.1823.86" etag="xZVC3kQfpJrLAeyLbBfj" version="21.6.5" type="github">
  <diagram name="Halaman-1" id="CglVsIDrJBTKtxa0ypcK">
    <mxGraphModel dx="1674" dy="764" grid="1" gridSize="10" guides="1" tooltips="1" connect="1" arrows="1" fold="1" page="1" pageScale="1" pageWidth="827" pageHeight="1169" math="0" shadow="0">
      <root>
        <mxCell id="0" />
        <mxCell id="1" parent="0" />
        <mxCell id="005mSIWop0IHLlmu6kwe-1" value="&lt;font face=&quot;Times New Roman&quot;&gt;Admin&lt;/font&gt;" style="shape=umlActor;verticalLabelPosition=bottom;verticalAlign=top;html=1;outlineConnect=0;" parent="1" vertex="1">
          <mxGeometry x="20" y="390" width="30" height="60" as="geometry" />
        </mxCell>
        <mxCell id="005mSIWop0IHLlmu6kwe-3" value="&lt;font face=&quot;Times New Roman&quot;&gt;UC-2&lt;br&gt;Mengelola data Admin&lt;/font&gt;" style="ellipse;whiteSpace=wrap;html=1;" parent="1" vertex="1">
          <mxGeometry x="240" y="160" width="120" height="80" as="geometry" />
        </mxCell>
        <mxCell id="005mSIWop0IHLlmu6kwe-4" value="&lt;font face=&quot;Times New Roman&quot;&gt;UC-3&lt;br&gt;Mengelola data &lt;br&gt;Siswa&lt;/font&gt;" style="ellipse;whiteSpace=wrap;html=1;" parent="1" vertex="1">
          <mxGeometry x="240" y="250" width="120" height="80" as="geometry" />
        </mxCell>
        <mxCell id="005mSIWop0IHLlmu6kwe-10" value="" style="swimlane;startSize=0;" parent="1" vertex="1">
          <mxGeometry x="110" y="130" width="550" height="640" as="geometry" />
        </mxCell>
        <mxCell id="005mSIWop0IHLlmu6kwe-11" value="&lt;font face=&quot;Times New Roman&quot;&gt;UC-1&lt;br&gt;Login&lt;/font&gt;" style="ellipse;whiteSpace=wrap;html=1;fontStyle=0" parent="005mSIWop0IHLlmu6kwe-10" vertex="1">
          <mxGeometry x="410" y="240" width="120" height="80" as="geometry" />
        </mxCell>
        <mxCell id="005mSIWop0IHLlmu6kwe-19" value="&lt;font face=&quot;Times New Roman&quot;&gt;UC-9&lt;br&gt;Logout&lt;/font&gt;" style="ellipse;whiteSpace=wrap;html=1;fontStyle=0" parent="005mSIWop0IHLlmu6kwe-10" vertex="1">
          <mxGeometry x="410" y="400" width="120" height="80" as="geometry" />
        </mxCell>
        <mxCell id="005mSIWop0IHLlmu6kwe-20" value="&amp;lt;&amp;lt;extend&amp;gt;&amp;gt;" style="edgeStyle=none;html=1;startArrow=open;endArrow=none;startSize=12;verticalAlign=bottom;dashed=1;labelBackgroundColor=none;rounded=0;entryX=0.5;entryY=1;entryDx=0;entryDy=0;exitX=0.5;exitY=0;exitDx=0;exitDy=0;" parent="005mSIWop0IHLlmu6kwe-10" source="005mSIWop0IHLlmu6kwe-19" target="005mSIWop0IHLlmu6kwe-11" edge="1">
          <mxGeometry width="160" relative="1" as="geometry">
            <mxPoint x="400" y="260" as="sourcePoint" />
            <mxPoint x="560" y="260" as="targetPoint" />
          </mxGeometry>
        </mxCell>
        <mxCell id="Lv6XaUCazN6hXsVmhlYZ-1" value="&lt;font face=&quot;Times New Roman&quot;&gt;UC-7&lt;br&gt;Mencetak Kartu Siswa&lt;/font&gt;" style="ellipse;whiteSpace=wrap;html=1;" parent="005mSIWop0IHLlmu6kwe-10" vertex="1">
          <mxGeometry x="130" y="390" width="120" height="80" as="geometry" />
        </mxCell>
        <mxCell id="Lv6XaUCazN6hXsVmhlYZ-3" value="&amp;lt;&amp;lt;include&amp;gt;&amp;gt;" style="edgeStyle=none;html=1;endArrow=open;verticalAlign=bottom;dashed=1;labelBackgroundColor=none;rounded=0;exitX=0;exitY=0.5;exitDx=0;exitDy=0;entryX=1;entryY=0.5;entryDx=0;entryDy=0;" parent="005mSIWop0IHLlmu6kwe-10" source="005mSIWop0IHLlmu6kwe-11" target="Lv6XaUCazN6hXsVmhlYZ-1" edge="1">
          <mxGeometry width="160" relative="1" as="geometry">
            <mxPoint x="620" y="320" as="sourcePoint" />
            <mxPoint x="780" y="320" as="targetPoint" />
          </mxGeometry>
        </mxCell>
        <mxCell id="Lv6XaUCazN6hXsVmhlYZ-4" value="&lt;font face=&quot;Times New Roman&quot;&gt;UC-8&lt;br&gt;Mencetak Detail Data Siswa&lt;/font&gt;" style="ellipse;whiteSpace=wrap;html=1;" parent="005mSIWop0IHLlmu6kwe-10" vertex="1">
          <mxGeometry x="130" y="480" width="120" height="80" as="geometry" />
        </mxCell>
        <mxCell id="Lv6XaUCazN6hXsVmhlYZ-10" value="&amp;lt;&amp;lt;include&amp;gt;&amp;gt;" style="edgeStyle=none;html=1;endArrow=open;verticalAlign=bottom;dashed=1;labelBackgroundColor=none;rounded=0;exitX=0;exitY=0.5;exitDx=0;exitDy=0;entryX=1;entryY=0.5;entryDx=0;entryDy=0;" parent="005mSIWop0IHLlmu6kwe-10" source="005mSIWop0IHLlmu6kwe-11" target="Lv6XaUCazN6hXsVmhlYZ-4" edge="1">
          <mxGeometry width="160" relative="1" as="geometry">
            <mxPoint x="310" y="440" as="sourcePoint" />
            <mxPoint x="470" y="440" as="targetPoint" />
          </mxGeometry>
        </mxCell>
        <mxCell id="005mSIWop0IHLlmu6kwe-5" value="&lt;font face=&quot;Times New Roman&quot;&gt;UC-6&lt;br&gt;Mencetak Laporan&lt;/font&gt;" style="ellipse;whiteSpace=wrap;html=1;" parent="005mSIWop0IHLlmu6kwe-10" vertex="1">
          <mxGeometry x="130" y="300" width="120" height="80" as="geometry" />
        </mxCell>
        <mxCell id="005mSIWop0IHLlmu6kwe-18" value="&amp;lt;&amp;lt;include&amp;gt;&amp;gt;" style="edgeStyle=none;html=1;endArrow=open;verticalAlign=bottom;dashed=1;labelBackgroundColor=none;rounded=0;exitX=0;exitY=0.5;exitDx=0;exitDy=0;entryX=1;entryY=0.5;entryDx=0;entryDy=0;" parent="005mSIWop0IHLlmu6kwe-10" source="005mSIWop0IHLlmu6kwe-11" target="005mSIWop0IHLlmu6kwe-5" edge="1">
          <mxGeometry width="160" relative="1" as="geometry">
            <mxPoint x="280" y="230" as="sourcePoint" />
            <mxPoint x="440" y="230" as="targetPoint" />
          </mxGeometry>
        </mxCell>
        <mxCell id="t26hUUIoPCD5ux8cppsE-1" value="&lt;font face=&quot;Times New Roman&quot;&gt;UC-5&lt;br&gt;Mengelola data kelas&lt;/font&gt;" style="ellipse;whiteSpace=wrap;html=1;" vertex="1" parent="005mSIWop0IHLlmu6kwe-10">
          <mxGeometry x="130" y="210" width="120" height="80" as="geometry" />
        </mxCell>
        <mxCell id="t26hUUIoPCD5ux8cppsE-4" value="&amp;lt;&amp;lt;include&amp;gt;&amp;gt;" style="edgeStyle=none;html=1;endArrow=open;verticalAlign=bottom;dashed=1;labelBackgroundColor=none;rounded=0;exitX=0;exitY=0.5;exitDx=0;exitDy=0;entryX=1;entryY=0.5;entryDx=0;entryDy=0;" edge="1" parent="005mSIWop0IHLlmu6kwe-10" source="005mSIWop0IHLlmu6kwe-11" target="t26hUUIoPCD5ux8cppsE-1">
          <mxGeometry width="160" relative="1" as="geometry">
            <mxPoint x="420" y="250" as="sourcePoint" />
            <mxPoint x="260" y="170" as="targetPoint" />
          </mxGeometry>
        </mxCell>
        <mxCell id="005mSIWop0IHLlmu6kwe-16" value="&amp;lt;&amp;lt;include&amp;gt;&amp;gt;" style="edgeStyle=none;html=1;endArrow=open;verticalAlign=bottom;dashed=1;labelBackgroundColor=none;rounded=0;entryX=1;entryY=0.5;entryDx=0;entryDy=0;exitX=0;exitY=0.5;exitDx=0;exitDy=0;" parent="1" source="005mSIWop0IHLlmu6kwe-11" target="005mSIWop0IHLlmu6kwe-3" edge="1">
          <mxGeometry width="160" relative="1" as="geometry">
            <mxPoint x="380" y="350" as="sourcePoint" />
            <mxPoint x="540" y="350" as="targetPoint" />
          </mxGeometry>
        </mxCell>
        <mxCell id="005mSIWop0IHLlmu6kwe-17" value="&amp;lt;&amp;lt;include&amp;gt;&amp;gt;" style="edgeStyle=none;html=1;endArrow=open;verticalAlign=bottom;dashed=1;labelBackgroundColor=none;rounded=0;exitX=0;exitY=0.5;exitDx=0;exitDy=0;entryX=1;entryY=0.5;entryDx=0;entryDy=0;" parent="1" source="005mSIWop0IHLlmu6kwe-11" target="005mSIWop0IHLlmu6kwe-4" edge="1">
          <mxGeometry width="160" relative="1" as="geometry">
            <mxPoint x="390" y="360" as="sourcePoint" />
            <mxPoint x="550" y="360" as="targetPoint" />
          </mxGeometry>
        </mxCell>
        <mxCell id="Lv6XaUCazN6hXsVmhlYZ-5" value="" style="edgeStyle=none;html=1;endArrow=block;endFill=0;endSize=12;verticalAlign=bottom;rounded=0;exitX=1;exitY=0.3333333333333333;exitDx=0;exitDy=0;exitPerimeter=0;entryX=0;entryY=0.5;entryDx=0;entryDy=0;" parent="1" source="005mSIWop0IHLlmu6kwe-1" target="Lv6XaUCazN6hXsVmhlYZ-4" edge="1">
          <mxGeometry width="160" relative="1" as="geometry">
            <mxPoint x="50" y="480" as="sourcePoint" />
            <mxPoint x="210" y="480" as="targetPoint" />
          </mxGeometry>
        </mxCell>
        <mxCell id="Lv6XaUCazN6hXsVmhlYZ-6" value="" style="edgeStyle=none;html=1;endArrow=block;endFill=0;endSize=12;verticalAlign=bottom;rounded=0;exitX=1;exitY=0.3333333333333333;exitDx=0;exitDy=0;exitPerimeter=0;entryX=0;entryY=0.5;entryDx=0;entryDy=0;" parent="1" source="005mSIWop0IHLlmu6kwe-1" target="Lv6XaUCazN6hXsVmhlYZ-1" edge="1">
          <mxGeometry width="160" relative="1" as="geometry">
            <mxPoint x="70" y="310" as="sourcePoint" />
            <mxPoint x="230" y="310" as="targetPoint" />
          </mxGeometry>
        </mxCell>
        <mxCell id="Lv6XaUCazN6hXsVmhlYZ-7" value="" style="edgeStyle=none;html=1;endArrow=block;endFill=0;endSize=12;verticalAlign=bottom;rounded=0;exitX=1;exitY=0.3333333333333333;exitDx=0;exitDy=0;exitPerimeter=0;entryX=0;entryY=0.5;entryDx=0;entryDy=0;" parent="1" source="005mSIWop0IHLlmu6kwe-1" target="005mSIWop0IHLlmu6kwe-4" edge="1">
          <mxGeometry width="160" relative="1" as="geometry">
            <mxPoint x="80" y="300" as="sourcePoint" />
            <mxPoint x="240" y="300" as="targetPoint" />
          </mxGeometry>
        </mxCell>
        <mxCell id="Lv6XaUCazN6hXsVmhlYZ-8" value="" style="edgeStyle=none;html=1;endArrow=block;endFill=0;endSize=12;verticalAlign=bottom;rounded=0;exitX=1;exitY=0.3333333333333333;exitDx=0;exitDy=0;exitPerimeter=0;entryX=0;entryY=0.5;entryDx=0;entryDy=0;" parent="1" source="005mSIWop0IHLlmu6kwe-1" target="005mSIWop0IHLlmu6kwe-5" edge="1">
          <mxGeometry width="160" relative="1" as="geometry">
            <mxPoint x="120" y="330" as="sourcePoint" />
            <mxPoint x="280" y="330" as="targetPoint" />
          </mxGeometry>
        </mxCell>
        <mxCell id="Lv6XaUCazN6hXsVmhlYZ-9" value="" style="edgeStyle=none;html=1;endArrow=block;endFill=0;endSize=12;verticalAlign=bottom;rounded=0;exitX=1;exitY=0.3333333333333333;exitDx=0;exitDy=0;exitPerimeter=0;entryX=0;entryY=0.5;entryDx=0;entryDy=0;" parent="1" source="005mSIWop0IHLlmu6kwe-1" target="005mSIWop0IHLlmu6kwe-3" edge="1">
          <mxGeometry width="160" relative="1" as="geometry">
            <mxPoint x="100" y="260" as="sourcePoint" />
            <mxPoint x="260" y="260" as="targetPoint" />
          </mxGeometry>
        </mxCell>
        <mxCell id="t26hUUIoPCD5ux8cppsE-3" value="" style="edgeStyle=none;html=1;endArrow=block;endFill=0;endSize=12;verticalAlign=bottom;rounded=0;exitX=1;exitY=0.3333333333333333;exitDx=0;exitDy=0;exitPerimeter=0;entryX=0;entryY=0.5;entryDx=0;entryDy=0;" edge="1" parent="1" source="005mSIWop0IHLlmu6kwe-1" target="t26hUUIoPCD5ux8cppsE-1">
          <mxGeometry width="160" relative="1" as="geometry">
            <mxPoint x="60" y="420" as="sourcePoint" />
            <mxPoint x="250" y="300" as="targetPoint" />
          </mxGeometry>
        </mxCell>
      </root>
    </mxGraphModel>
  </diagram>
</mxfile>
